HIERARCHY
ROOT Hips
{
	OFFSET 0.000000 0.000000 0.000000 
	CHANNELS 6 Xposition Yposition Zposition Yrotation Zrotation Xrotation 
	JOINT Lumbar
	{
		OFFSET 0.000000 0.000000 0.000000 
		CHANNELS 3 Zrotation Xrotation Yrotation
		JOINT Neck
		{
			OFFSET 0.000000 0.445665 0.000000 
			CHANNELS 3 Zrotation Xrotation Yrotation
			End Site
			{
				OFFSET 0.000000 0.227535 0.000000 
			}
		}
		JOINT RightShoulder
		{
			OFFSET 0.019635 0.377685 0.194865 
			CHANNELS 3 Zrotation Xrotation Yrotation
			JOINT RightElbow
			{
				OFFSET 0.000000 -0.243375 0.000000 
				CHANNELS 2 Zrotation Yrotation
				JOINT RightWrist
				{
					OFFSET 0.000000 -0.264825 0.000000 
					CHANNELS 2 Zrotation Xrotation
					End Site
					{
						OFFSET 0.006600 -0.176220 0.000990 
					}
				}
			}
		}
		JOINT LeftShoulder
		{
			OFFSET 0.019635 0.377685 -0.194865 
			CHANNELS 3 Zrotation Xrotation Yrotation
			JOINT LeftElbow
			{
				OFFSET 0.000000 -0.243375 0.000000 
				CHANNELS 2 Zrotation Yrotation
				JOINT LeftWrist
				{
					OFFSET 0.000000 -0.264825 0.000000 
					CHANNELS 2 Zrotation Xrotation
					End Site
					{
						OFFSET 0.006600 -0.176220 -0.000990 
					}
				}
			}
		}
	}
	JOINT RightHip
	{
		OFFSET 0.052140 -0.069960 0.075570 
		CHANNELS 3 Zrotation Xrotation Yrotation
		JOINT RightKnee
		{
			OFFSET 0.000000 -0.402270 0.000000 
			CHANNELS 1 Zrotation
			JOINT RightAnkle
			{
				OFFSET 0.000000 -0.404085 0.000000 
				CHANNELS 3 Zrotation Xrotation Yrotation
				End Site
				{
					OFFSET 0.204105 -0.089430 0.008415 
				}
			}
		}
	}
	JOINT LeftHip
	{
		OFFSET 0.052140 -0.069960 -0.075570 
		CHANNELS 3 Zrotation Xrotation Yrotation
		JOINT LeftKnee
		{
			OFFSET 0.000000 -0.402270 0.000000 
			CHANNELS 1 Zrotation
			JOINT LeftAnkle
			{
				OFFSET 0.000000 -0.404085 0.000000 
				CHANNELS 3 Zrotation Xrotation Yrotation
				End Site
				{
					OFFSET 0.204105 -0.089430 -0.008415 
				}
			}
		}
	}
}
MOTION
Frames: 19
Frame Time: 0.02
0.78493 0.1673 -0.71775 39.12333 -31.75482 -8.39049 49.87524 2.04241 6.27931 2.44165 -0.12858 -2.11994 -22.77703 -4.96899 -25.83209 31.8647 76.13522 -8.23489 0.37454 -5.95168 46.97805 -9.49612 63.30933 -82.70514 0.88797 0.79365 34.41422 -6.97523 -9.84772 -8.48539 -7.87999 -3.27307 -3.90975 35.62761 2.78954 7.68018 -13.08843 -7.09032 2.14884 3.30815
0.78924 0.1683 -0.71594 38.33856 -31.78859 -8.19047 49.91555 2.24451 6.36246 2.37767 -0.13125 -2.11994 -22.31708 -5.42778 -25.7588 31.66379 76.17497 -7.92168 0.44379 -3.90735 50.03041 -9.92744 62.11815 -82.78175 1.27308 0.91288 34.03651 -6.76804 -9.59408 -7.22917 -6.51329 -3.5434 -4.11427 35.29534 2.79539 7.75623 -12.55633 -7.155 2.2385 3.35511
0.79383 0.16942 -0.71403 37.46336 -31.82454 -7.98416 49.97225 2.47887 6.47411 2.32812 -0.14336 -2.11994 -21.74952 -6.04871 -24.70627 31.66945 76.37116 -7.50813 0.48696 -1.21663 53.54143 -10.51925 60.47589 -82.84603 1.64733 1.04554 33.54403 -6.52303 -9.3576 -5.93926 -4.79371 -3.9907 -4.42511 34.92898 2.78852 7.83392 -11.95669 -7.23612 2.34648 3.41144
0.7983 0.17048 -0.71216 36.62934 -31.85828 -7.78145 50.01741 2.69785 6.55733 2.28116 -0.15575 -2.11994 -21.21059 -6.59591 -24.07069 31.58962 76.5024 -7.14156 0.54068 1.61478 56.78954 -11.27463 58.87967 -82.93314 2.00292 1.15187 33.1145 -6.29883 -9.00661 -4.69236 -3.31759 -4.49811 -4.75466 34.57039 2.78716 7.91381 -11.37728 -7.31093 2.4429 3.46198
0.80274 0.17154 -0.71032 35.78711 -31.89415 -7.57301 50.07849 2.92115 6.71638 2.1919 -0.14806 -2.11994 -20.74956 -7.1544 -23.52463 31.4828 76.61518 -6.7524 0.60315 2.65121 60.30452 -11.12205 57.92889 -82.95361 2.45843 1.33384 32.64069 -6.06033 -9.08896 -3.34832 -1.49394 -4.43377 -4.81187 34.24131 2.78493 7.99433 -10.8419 -7.3803 2.53077 3.50806
0.8073 0.17264 -0.7084 34.94583 -31.92765 -7.37697 50.11041 3.14209 6.71631 2.19805 -0.18483 -2.11994 -20.09977 -7.72199 -22.57161 31.47364 76.79937 -6.39635 0.63887 7.53141 63.33552 -12.78348 55.55455 -83.10205 2.70242 1.37373 32.2318 -5.84157 -8.29489 -2.19282 -0.30451 -5.57339 -5.44729 33.8443 2.78312 8.05809 -10.19853 -7.46568 2.66934 3.5797
0.81214 0.17378 -0.70629 34.10227 -31.94932 -7.20505 50.06339 3.35516 6.31898 2.4332 -0.34166 -2.11994 -19.00658 -8.29472 -20.72611 31.74202 77.15903 -6.11233 0.62113 23.27156 65.20208 -20.45608 49.13735 -83.68008 2.3749 0.90698 32.02483 -5.69499 -4.88358 -1.54387 -1.01086 -10.25268 -7.78065 33.2635 2.77532 8.21219 -9.27861 -7.5842 2.6867 3.59335
0.81707 0.17495 -0.70411 33.26956 -31.96992 -7.04831 49.98598 3.56346 5.75118 2.76925 -0.54345 -2.11994 -17.72182 -8.86565 -18.51283 32.09302 77.58127 -5.87408 0.57494 42.77388 66.51285 -29.78709 41.34685 -84.37671 1.83418 0.3137 31.88783 -5.56797 -0.62498 -1.08685 -2.35787 -16.09118 -10.6693 32.61745 2.77062 8.32625 -8.25256 -7.71963 2.79538 3.65257
0.82194 0.17611 -0.70195 32.44906 -31.99428 -6.89239 49.91867 3.76946 5.22758 3.08018 -0.7246 -2.11994 -16.48945 -9.42369 -16.47427 32.3638 77.96312 -5.64687 0.53169 60.29912 67.88805 -37.63495 34.32951 -84.96727 1.38325 -0.14402 31.7222 -5.42643 3.11849 -0.55352 -3.3727 -21.22776 -13.2195 32.00369 2.77114 8.36544 -7.27043 -7.85183 3.03926 3.778
0.82692 0.17725 -0.69981 31.54884 -32.00423 -6.70328 49.86629 3.99522 4.84287 3.30619 -0.90548 -2.11994 -15.38894 -10.04705 -14.35901 32.81032 78.40082 -5.2858 0.52778 79.00944 70.06688 -48.43459 26.66054 -85.7653 0.95745 -0.91522 31.53956 -5.30736 7.40797 0.02656 -4.54514 -27.10312 -16.13406 31.37461 2.74246 8.7871 -6.29961 -7.9655 2.56612 3.55067
0.83168 0.17845 -0.69763 30.82358 -32.04467 -6.58746 49.777 4.17857 4.13135 3.73018 -1.09932 -2.11994 -13.98296 -10.52975 -12.34157 32.92238 78.73523 -5.21036 0.43795 96.09394 70.44254 -53.64533 20.03675 -86.17504 0.43442 -1.08329 31.41002 -5.14659 10.76483 0.46347 -5.55012 -31.72104 -18.42371 30.76611 2.77643 8.41575 -5.28661 -8.12195 3.57233 4.0514
0.83579 0.17987 -0.69528 30.53482 -32.16334 -6.66634 49.57919 4.24342 2.53059 4.6991 -1.30163 -2.11994 -11.6673 -10.64095 -10.58163 31.9617 78.76669 -5.96074 0.09632 108.12975 65.89745 -41.54633 16.56819 -85.3466 -0.34977 0.61763 31.41458 -4.86682 11.31152 0.55132 -5.90232 -32.50886 -18.82062 30.19857 2.9744 5.75191 -4.13436 -8.38758 8.94743 6.7015
0.83967 0.18136 -0.6929 30.42977 -32.31383 -6.81907 49.34767 4.26623 0.61278 5.85925 -1.51811 -2.11994 -9.07219 -10.60702 -8.95626 30.68308 78.69225 -6.98898 -0.32712 118.32984 59.57005 -24.01727 14.21359 -84.14632 -1.21379 2.90057 31.47004 -4.54468 10.89605 0.50169 -6.07145 -32.00336 -18.57445 29.65995 3.23658 2.31297 -2.9526 -8.69557 15.7513 10.05503
0.84365 0.18281 -0.69056 30.27084 -32.45396 -6.94088 49.14097 4.30957 -1.14241 6.91696 -1.73913 -2.11994 -6.68018 -10.62758 -7.34256 29.63554 78.66633 -7.85833 -0.69829 129.12883 54.10586 -9.96625 11.39523 -83.20944 -2.0147 4.80007 31.49955 -4.24118 10.93873 0.51545 -6.34885 -32.13884 -18.64306 29.12935 3.47524 -0.69804 -1.81687 -8.98842 21.69956 12.98762
0.84767 0.18427 -0.6881 29.9901 -32.57709 -7.05279 48.89382 4.34607 -2.98515 8.04451 -1.91664 -2.11994 -3.96147 -10.6955 -5.41102 28.23181 78.63868 -8.86507 -1.13228 141.0488 48.39357 8.20133 8.34954 -81.88875 -2.9456 7.18517 31.54267 -3.9399 10.92107 0.51893 -6.54456 -32.09356 -18.63728 28.50781 3.69143 -4.03235 -0.54036 -9.26833 28.52026 16.34789
0.85154 0.18574 -0.6859 30.00295 -32.74275 -7.20174 48.7224 4.38776 -4.71437 9.06978 -2.18597 -2.11994 -1.85765 -10.63167 -4.17451 27.48537 78.5916 -9.65336 -1.45685 150.15434 42.78733 19.21984 6.05952 -81.26425 -3.61029 8.71391 31.56943 -3.625 10.79172 0.51336 -6.85612 -32.0983 -18.62489 28.08255 3.96798 -6.87383 0.44939 -9.58022 33.86407 18.98563
0.85508 0.18725 -0.68437 30.81247 -33.02247 -7.44253 48.77677 4.44645 -6.0889 9.77319 -2.71847 -2.11994 -1.53585 -10.2279 -4.86069 28.69937 78.49004 -9.7496 -1.43801 151.86952 37.86923 8.22678 5.59539 -82.76952 -3.62661 7.60001 31.53227 -3.27177 10.56486 0.51999 -7.55211 -32.58731 -18.76204 28.20086 4.40948 -8.18987 0.63172 -10.01337 34.76023 19.43972
0.85846 0.18875 -0.68311 31.90494 -33.34343 -7.7164 48.90741 4.51324 -7.33108 10.36519 -3.34003 -2.11994 -1.83997 -9.69899 -6.23638 30.5722 78.37648 -9.61945 -1.30954 150.8103 33.1324 -9.94241 5.85846 -84.96721 -3.35692 5.62647 31.47822 -2.90843 10.25805 0.52254 -8.36461 -33.15969 -18.90987 28.51492 4.90669 -8.97822 0.52536 -10.47054 34.12423 19.14519
0.86188 0.19024 -0.68175 32.848 -33.64219 -7.97026 48.99737 4.58131 -8.60856 11.00286 -3.91227 -2.11994 -1.84888 -9.23465 -7.2751 32.09929 78.28663 -9.60716 -1.24571 151.04543 28.33866 -24.22764 5.7874 -86.76937 -3.14035 4.1407 31.43501 -2.55671 10.00101 0.52562 -9.10704 -33.66884 -19.04323 28.73339 5.36948 -9.99163 0.55623 -10.8864 34.20199 19.20399
